<svg width="24" height="32" viewBox="0 0 24 32" fill="none" xmlns="http://www.w3.org/2000/svg">
<path d="M21 10.5H19.5V7.5C19.5 3.36 16.14 0 12 0C7.86 0 4.5 3.36 4.5 7.5V10.5H3C1.35 10.5 0 11.85 0 13.5V28.5C0 30.15 1.35 31.5 3 31.5H21C22.65 31.5 24 30.15 24 28.5V13.5C24 11.85 22.65 10.5 21 10.5ZM7.5 7.5C7.5 5.01 9.51 3 12 3C14.49 3 16.5 5.01 16.5 7.5V10.5H7.5V7.5ZM21 28.5H3V13.5H21V28.5ZM12 24C13.65 24 15 22.65 15 21C15 19.35 13.65 18 12 18C10.35 18 9 19.35 9 21C9 22.65 10.35 24 12 24Z" fill="#D9D9D9"/>
</svg>