<svg width="36" height="36" viewBox="0 0 36 36" fill="none" xmlns="http://www.w3.org/2000/svg">
<g clip-path="url(#clip0_45_432)">
<path d="M19.5 4.5H16.5V19.5H19.5V4.5ZM26.745 7.755L24.615 9.885C26.985 11.79 28.5 14.715 28.5 18C28.5 23.805 23.805 28.5 18 28.5C12.195 28.5 7.5 23.805 7.5 18C7.5 14.715 9.015 11.79 11.37 9.87L9.255 7.755C6.345 10.23 4.5 13.89 4.5 18C4.5 25.455 10.545 31.5 18 31.5C25.455 31.5 31.5 25.455 31.5 18C31.5 13.89 29.655 10.23 26.745 7.755Z" fill="#D9D9D9"/>
</g>
<defs>
<clipPath id="clip0_45_432">
<rect width="36" height="36" fill="white"/>
</clipPath>
</defs>
</svg>